<?xml version="1.0" encoding="UTF-8"?>
<svg id="_レイヤー_2" data-name="レイヤー 2" xmlns="http://www.w3.org/2000/svg" xmlns:xlink="http://www.w3.org/1999/xlink" viewBox="0 0 2001.12 2001.12">
  <defs>
    <style>
      .cls-1 {
        fill: url(#_名称未設定グラデーション_670-4);
      }

      .cls-2 {
        fill: url(#_名称未設定グラデーション_670-2);
      }

      .cls-3 {
        fill: url(#_名称未設定グラデーション_670-7);
      }

      .cls-4 {
        fill: url(#_名称未設定グラデーション_670-8);
      }

      .cls-5 {
        fill: url(#_名称未設定グラデーション_670-6);
      }

      .cls-6 {
        fill: url(#_名称未設定グラデーション_670-5);
      }

      .cls-7 {
        fill: url(#_名称未設定グラデーション_670-3);
      }

      .cls-8 {
        fill: url(#_名称未設定グラデーション_670);
      }

      .cls-9 {
        fill: url(#_名称未設定グラデーション_433);
      }

      .cls-10 {
        fill: url(#_名称未設定グラデーション_434);
        filter: url(#outer-glow-1);
      }
    </style>
    <radialGradient id="_名称未設定グラデーション_434" data-name="名称未設定グラデーション 434" cx="1000.49" cy="1000.5" fx="1000.49" fy="1000.5" r="855.91" gradientUnits="userSpaceOnUse">
      <stop offset="0" stop-color="#231815"/>
      <stop offset=".63" stop-color="#545251"/>
      <stop offset="1" stop-color="#231815"/>
    </radialGradient>
    <filter id="outer-glow-1" x="0" y="0" width="2001.12" height="2001.12" filterUnits="userSpaceOnUse">
      <feOffset dx="0" dy="0"/>
      <feGaussianBlur result="blur" stdDeviation="48.19"/>
      <feFlood flood-color="#231815" flood-opacity=".87"/>
      <feComposite in2="blur" operator="in"/>
      <feComposite in="SourceGraphic"/>
    </filter>
    <linearGradient id="_名称未設定グラデーション_433" data-name="名称未設定グラデーション 433" x1="199.76" y1="578.48" x2="1503.27" y2="1264.65" gradientUnits="userSpaceOnUse">
      <stop offset="0" stop-color="#231815"/>
      <stop offset=".63" stop-color="#545251"/>
      <stop offset="1" stop-color="#231815"/>
    </linearGradient>
    <linearGradient id="_名称未設定グラデーション_670" data-name="名称未設定グラデーション 670" x1="-2286.2" y1="4327.82" x2="-2247.76" y2="4327.82" gradientTransform="translate(5011.55 -457.43) rotate(45)" gradientUnits="userSpaceOnUse">
      <stop offset="0" stop-color="#e6e62f"/>
      <stop offset=".3" stop-color="#f1f096"/>
      <stop offset=".5" stop-color="#fff"/>
      <stop offset=".78" stop-color="#f9f27f"/>
      <stop offset="1" stop-color="#f5ec00"/>
    </linearGradient>
    <linearGradient id="_名称未設定グラデーション_670-2" data-name="名称未設定グラデーション 670" x1="-1363.09" y1="3401.95" x2="-1324.65" y2="3401.95" xlink:href="#_名称未設定グラデーション_670"/>
    <linearGradient id="_名称未設定グラデーション_670-3" data-name="名称未設定グラデーション 670" x1="5372.81" y1="-136.88" x2="5411.25" y2="-136.88" gradientTransform="translate(-2718.74 5555.71) rotate(-45)" xlink:href="#_名称未設定グラデーション_670"/>
    <linearGradient id="_名称未設定グラデーション_670-4" data-name="名称未設定グラデーション 670" x1="6295.69" y1="-1059.75" x2="6334.12" y2="-1059.75" gradientTransform="translate(-2718.74 5555.71) rotate(-45)" xlink:href="#_名称未設定グラデーション_670"/>
    <linearGradient id="_名称未設定グラデーション_670-5" data-name="名称未設定グラデーション 670" x1="1021.08" y1="248.16" x2="1059.52" y2="248.16" gradientTransform="translate(438.42 303.06)" xlink:href="#_名称未設定グラデーション_670"/>
    <linearGradient id="_名称未設定グラデーション_670-6" data-name="名称未設定グラデーション 670" x1="9033.77" y1="2701.61" x2="9072.2" y2="2701.61" gradientTransform="translate(-1203.67 10492.04) rotate(-90)" xlink:href="#_名称未設定グラデーション_670"/>
    <linearGradient id="_名称未設定グラデーション_670-7" data-name="名称未設定グラデーション 670" x1="9921.6" y1="1719.93" x2="9960.04" y2="1719.93" gradientTransform="translate(-1203.67 10492.04) rotate(-90)" xlink:href="#_名称未設定グラデーション_670"/>
    <linearGradient id="_名称未設定グラデーション_670-8" data-name="名称未設定グラデーション 670" x1="39.41" y1="1136" x2="77.84" y2="1136" gradientTransform="translate(438.42 303.06)" xlink:href="#_名称未設定グラデーション_670"/>
  </defs>
  <g id="_ルーレっと" data-name="ルーレっと">
    <g>
      <circle class="cls-10" cx="1000.49" cy="1000.5" r="855.91"/>
      <g>
        <circle class="cls-9" cx="1000.49" cy="999.98" r="736.39"/>
        <path class="cls-8" d="M348.32,1026.98c-3.81-9.25-7.62-18.51-11.43-27.76,3.81-8.87,7.62-17.73,11.43-26.6"/>
        <path class="cls-2" d="M1655.74,1025.03c-3.81-9.25-7.62-18.51-11.43-27.76,3.81-8.87,7.62-17.73,11.43-26.6,3.81,8.87,7.62,17.73,11.43,26.6-3.81,9.25-7.62,18.51-11.43,27.76Z"/>
        <path class="cls-7" d="M1024.4,1646.18c-9.25,3.81-18.51,7.62-27.76,11.43-8.87-3.81-17.73-7.62-26.6-11.43,8.87-3.81,17.73-7.62,26.6-11.43,9.25,3.81,18.51,7.62,27.76,11.43Z"/>
        <path class="cls-1" d="M1024.4,341.04c-9.25,3.81-18.51,7.62-27.76,11.43-8.87-3.81-17.73-7.62-26.6-11.43,8.87-3.81,17.73-7.62,26.6-11.43,9.25,3.81,18.51,7.62,27.76,11.43Z"/>
        <path class="cls-6" d="M1459.5,532c8.96,3.57,17.93,7.15,26.89,10.72,3.85,9.24,7.7,18.48,11.54,27.71"/>
        <path class="cls-5" d="M1478.72,1458.27c3.57-8.96,7.15-17.93,10.72-26.89,9.24-3.85,18.48-7.7,27.71-11.54"/>
        <path class="cls-3" d="M535.48,532c-3.85,9.24-7.7,18.48-11.54,27.71-8.96,3.57-17.93,7.15-26.89,10.72,3.57-8.96,7.15-17.93,10.72-26.89,9.24-3.85,18.48-7.7,27.71-11.54Z"/>
        <path class="cls-4" d="M516.26,1458.27c-9.24-3.85-18.48-7.7-27.71-11.54-3.57-8.96-7.15-17.93-10.72-26.89,8.96,3.57,17.93,7.15,26.89,10.72,3.85,9.24,7.7,18.48,11.54,27.71Z"/>
      </g>
    </g>
  </g>
</svg>