<svg width="63" height="63" viewBox="0 0 63 63" fill="none" xmlns="http://www.w3.org/2000/svg">
<path opacity="0.9" d="M31.4004 61.4C47.9689 61.4 61.4004 47.9686 61.4004 31.4C61.4004 14.8315 47.9689 1.40002 31.4004 1.40002C14.8318 1.40002 1.40039 14.8315 1.40039 31.4C1.40039 47.9686 14.8318 61.4 31.4004 61.4Z" fill="#A1141E" stroke="#111111" stroke-width="2.8"/>
<path d="M53.9395 31.4H58.7916" stroke="#E6C979" stroke-width="3.6" stroke-linecap="round"/>
<path d="M50.9199 42.6698L55.1199 45.0959" stroke="#E6C979" stroke-width="3.6" stroke-linecap="round"/>
<path d="M42.6699 50.9194L45.096 55.1194" stroke="#E6C979" stroke-width="3.6" stroke-linecap="round"/>
<path d="M31.4004 53.9388V58.791" stroke="#E6C979" stroke-width="3.6" stroke-linecap="round"/>
<path d="M20.1312 50.9194L17.7051 55.1194" stroke="#E6C979" stroke-width="3.6" stroke-linecap="round"/>
<path d="M11.8807 42.6698L7.68066 45.0959" stroke="#E6C979" stroke-width="3.6" stroke-linecap="round"/>
<path d="M8.86194 31.4H4.00977" stroke="#E6C979" stroke-width="3.6" stroke-linecap="round"/>
<path d="M11.8807 20.1304L7.68066 17.7043" stroke="#E6C979" stroke-width="3.6" stroke-linecap="round"/>
<path d="M20.1312 11.8804L17.7051 7.68042" stroke="#E6C979" stroke-width="3.6" stroke-linecap="round"/>
<path d="M31.4004 8.8609V4.00873" stroke="#E6C979" stroke-width="3.6" stroke-linecap="round"/>
<path d="M42.6699 11.8804L45.096 7.68042" stroke="#E6C979" stroke-width="3.6" stroke-linecap="round"/>
<path d="M50.9199 20.1304L55.1199 17.7043" stroke="#E6C979" stroke-width="3.6" stroke-linecap="round"/>
<path d="M31.3215 48.8522C41.0032 48.8522 48.8519 41.0035 48.8519 31.3218C48.8519 21.64 41.0032 13.7913 31.3215 13.7913C21.6397 13.7913 13.791 21.64 13.791 31.3218C13.791 41.0035 21.6397 48.8522 31.3215 48.8522Z" fill="#95161F" stroke="#E6C979" stroke-width="3.2"/>
<path d="M28.8848 39.4V24.568L31.3088 26.872H26.0048V22.6H34.5488V39.4H28.8848Z" fill="white"/>
</svg>
