<svg width="63" height="63" viewBox="0 0 63 63" fill="none" xmlns="http://www.w3.org/2000/svg">
<path opacity="0.9" d="M31.4004 61.4C47.9689 61.4 61.4004 47.9686 61.4004 31.4C61.4004 14.8315 47.9689 1.40002 31.4004 1.40002C14.8318 1.40002 1.40039 14.8315 1.40039 31.4C1.40039 47.9686 14.8318 61.4 31.4004 61.4Z" fill="#2A5997" stroke="#111111" stroke-width="2.8"/>
<path d="M53.9395 31.4H58.7916" stroke="#E6C979" stroke-width="3.6" stroke-linecap="round"/>
<path d="M50.9199 42.6698L55.1199 45.0959" stroke="#E6C979" stroke-width="3.6" stroke-linecap="round"/>
<path d="M42.6699 50.9194L45.096 55.1194" stroke="#E6C979" stroke-width="3.6" stroke-linecap="round"/>
<path d="M31.4004 53.9388V58.791" stroke="#E6C979" stroke-width="3.6" stroke-linecap="round"/>
<path d="M20.1312 50.9194L17.7051 55.1194" stroke="#E6C979" stroke-width="3.6" stroke-linecap="round"/>
<path d="M11.8807 42.6698L7.68066 45.0959" stroke="#E6C979" stroke-width="3.6" stroke-linecap="round"/>
<path d="M8.86194 31.4H4.00977" stroke="#E6C979" stroke-width="3.6" stroke-linecap="round"/>
<path d="M11.8807 20.1304L7.68066 17.7043" stroke="#E6C979" stroke-width="3.6" stroke-linecap="round"/>
<path d="M20.1312 11.8804L17.7051 7.68042" stroke="#E6C979" stroke-width="3.6" stroke-linecap="round"/>
<path d="M31.4004 8.8609V4.00873" stroke="#E6C979" stroke-width="3.6" stroke-linecap="round"/>
<path d="M42.6699 11.8804L45.096 7.68042" stroke="#E6C979" stroke-width="3.6" stroke-linecap="round"/>
<path d="M50.9199 20.1304L55.1199 17.7043" stroke="#E6C979" stroke-width="3.6" stroke-linecap="round"/>
<path d="M31.3215 48.8522C41.0032 48.8522 48.8519 41.0035 48.8519 31.3218C48.8519 21.64 41.0032 13.7913 31.3215 13.7913C21.6397 13.7913 13.791 21.64 13.791 31.3218C13.791 41.0035 21.6397 48.8522 31.3215 48.8522Z" fill="#2A548C" stroke="#E6C979" stroke-width="3.2"/>
<path d="M30.3885 40.4362C29.2365 40.4362 28.0685 40.3082 26.8845 40.0522C25.7005 39.7962 24.6605 39.4202 23.7645 38.9242L25.6845 34.7482C26.4045 35.1642 27.1565 35.4762 27.9405 35.6842C28.7245 35.8762 29.4685 35.9722 30.1725 35.9722C30.8125 35.9722 31.3405 35.8602 31.7565 35.6362C32.1725 35.4122 32.3805 35.0842 32.3805 34.6522C32.3805 34.4122 32.3085 34.2042 32.1645 34.0282C32.0205 33.8362 31.7645 33.6922 31.3965 33.5962C31.0445 33.5002 30.5245 33.4522 29.8365 33.4522H24.9645L25.8045 23.2522H36.9645V27.5242H27.7965L30.6525 25.1002L30.1485 31.6042L27.2925 29.1802H31.2045C32.8685 29.1802 34.1965 29.4202 35.1885 29.9002C36.1965 30.3802 36.9245 31.0282 37.3725 31.8442C37.8365 32.6442 38.0685 33.5402 38.0685 34.5322C38.0685 35.5242 37.7965 36.4762 37.2525 37.3882C36.7245 38.2842 35.8925 39.0202 34.7565 39.5962C33.6365 40.1562 32.1805 40.4362 30.3885 40.4362Z" fill="white"/>
</svg>
