<svg width="63" height="63" viewBox="0 0 63 63" fill="none" xmlns="http://www.w3.org/2000/svg">
<path opacity="0.9" d="M31.4004 61.4C47.9689 61.4 61.4004 47.9686 61.4004 31.4C61.4004 14.8315 47.9689 1.40002 31.4004 1.40002C14.8318 1.40002 1.40039 14.8315 1.40039 31.4C1.40039 47.9686 14.8318 61.4 31.4004 61.4Z" fill="#1D5129" stroke="#111111" stroke-width="2.8"/>
<path d="M53.9395 31.4H58.7916" stroke="#E6C979" stroke-width="3.6" stroke-linecap="round"/>
<path d="M50.9199 42.6698L55.1199 45.0959" stroke="#E6C979" stroke-width="3.6" stroke-linecap="round"/>
<path d="M42.6699 50.9194L45.096 55.1194" stroke="#E6C979" stroke-width="3.6" stroke-linecap="round"/>
<path d="M31.4004 53.9388V58.791" stroke="#E6C979" stroke-width="3.6" stroke-linecap="round"/>
<path d="M20.1312 50.9194L17.7051 55.1194" stroke="#E6C979" stroke-width="3.6" stroke-linecap="round"/>
<path d="M11.8807 42.6698L7.68066 45.0959" stroke="#E6C979" stroke-width="3.6" stroke-linecap="round"/>
<path d="M8.86096 31.4H4.00879" stroke="#E6C979" stroke-width="3.6" stroke-linecap="round"/>
<path d="M11.8807 20.1304L7.68066 17.7043" stroke="#E6C979" stroke-width="3.6" stroke-linecap="round"/>
<path d="M20.1312 11.8804L17.7051 7.68042" stroke="#E6C979" stroke-width="3.6" stroke-linecap="round"/>
<path d="M31.4004 8.8609V4.00873" stroke="#E6C979" stroke-width="3.6" stroke-linecap="round"/>
<path d="M42.6699 11.8804L45.096 7.68042" stroke="#E6C979" stroke-width="3.6" stroke-linecap="round"/>
<path d="M50.9199 20.1304L55.1199 17.7043" stroke="#E6C979" stroke-width="3.6" stroke-linecap="round"/>
<path d="M31.3224 48.8522C41.0042 48.8522 48.8529 41.0035 48.8529 31.3218C48.8529 21.64 41.0042 13.7913 31.3224 13.7913C21.6406 13.7913 13.792 21.64 13.792 31.3218C13.792 41.0035 21.6406 48.8522 31.3224 48.8522Z" fill="#1E4D29" stroke="#E6C979" stroke-width="3.2"/>
<path d="M19.685 38.4V35.5L24.745 30.82C25.065 30.5134 25.2983 30.2467 25.445 30.02C25.605 29.7934 25.7117 29.5934 25.765 29.42C25.8183 29.2334 25.845 29.06 25.845 28.9C25.845 28.5534 25.7317 28.2867 25.505 28.1C25.2783 27.9 24.9383 27.8 24.485 27.8C24.0717 27.8 23.6783 27.9134 23.305 28.14C22.9317 28.3534 22.6383 28.6734 22.425 29.1L18.865 27.32C19.3717 26.36 20.1317 25.58 21.145 24.98C22.1583 24.38 23.4183 24.08 24.925 24.08C26.0317 24.08 27.0117 24.26 27.865 24.62C28.7183 24.98 29.385 25.4867 29.865 26.14C30.345 26.7934 30.585 27.5667 30.585 28.46C30.585 28.9134 30.525 29.3667 30.405 29.82C30.2983 30.2734 30.0717 30.7534 29.725 31.26C29.3783 31.7534 28.865 32.3067 28.185 32.92L24.385 36.38L23.645 34.74H30.905V38.4H19.685ZM36.913 38.72C35.953 38.72 34.9796 38.6134 33.993 38.4C33.0063 38.1867 32.1396 37.8734 31.393 37.46L32.993 33.98C33.593 34.3267 34.2196 34.5867 34.873 34.76C35.5263 34.92 36.1463 35 36.733 35C37.2663 35 37.7063 34.9067 38.053 34.72C38.3996 34.5334 38.573 34.26 38.573 33.9C38.573 33.7 38.513 33.5267 38.393 33.38C38.273 33.22 38.0596 33.1 37.753 33.02C37.4596 32.94 37.0263 32.9 36.453 32.9H32.393L33.093 24.4H42.393V27.96H34.753L37.133 25.94L36.713 31.36L34.333 29.34H37.593C38.9796 29.34 40.0863 29.54 40.913 29.94C41.753 30.34 42.3596 30.88 42.733 31.56C43.1196 32.2267 43.313 32.9734 43.313 33.8C43.313 34.6267 43.0863 35.42 42.633 36.18C42.193 36.9267 41.4996 37.54 40.553 38.02C39.6196 38.4867 38.4063 38.72 36.913 38.72Z" fill="white"/>
</svg>
