<svg width="63" height="63" viewBox="0 0 63 63" fill="none" xmlns="http://www.w3.org/2000/svg">
<path opacity="0.9" d="M31.4004 61.4C47.9689 61.4 61.4004 47.9686 61.4004 31.4C61.4004 14.8315 47.9689 1.40002 31.4004 1.40002C14.8318 1.40002 1.40039 14.8315 1.40039 31.4C1.40039 47.9686 14.8318 61.4 31.4004 61.4Z" fill="#EE8412" stroke="#111111" stroke-width="2.8"/>
<path d="M53.9395 31.4H58.7916" stroke="#E6C979" stroke-width="3.6" stroke-linecap="round"/>
<path d="M50.9199 42.6698L55.1199 45.0959" stroke="#E6C979" stroke-width="3.6" stroke-linecap="round"/>
<path d="M42.6699 50.9194L45.096 55.1194" stroke="#E6C979" stroke-width="3.6" stroke-linecap="round"/>
<path d="M31.4004 53.9388V58.791" stroke="#E6C979" stroke-width="3.6" stroke-linecap="round"/>
<path d="M20.1312 50.9194L17.7051 55.1194" stroke="#E6C979" stroke-width="3.6" stroke-linecap="round"/>
<path d="M11.8807 42.6698L7.68066 45.0959" stroke="#E6C979" stroke-width="3.6" stroke-linecap="round"/>
<path d="M8.86194 31.4H4.00977" stroke="#E6C979" stroke-width="3.6" stroke-linecap="round"/>
<path d="M11.8807 20.1304L7.68066 17.7043" stroke="#E6C979" stroke-width="3.6" stroke-linecap="round"/>
<path d="M20.1312 11.8804L17.7051 7.68042" stroke="#E6C979" stroke-width="3.6" stroke-linecap="round"/>
<path d="M31.4004 8.8609V4.00873" stroke="#E6C979" stroke-width="3.6" stroke-linecap="round"/>
<path d="M42.6699 11.8804L45.096 7.68042" stroke="#E6C979" stroke-width="3.6" stroke-linecap="round"/>
<path d="M50.9199 20.1304L55.1199 17.7043" stroke="#E6C979" stroke-width="3.6" stroke-linecap="round"/>
<path d="M31.3215 48.8522C41.0032 48.8522 48.8519 41.0035 48.8519 31.3218C48.8519 21.64 41.0032 13.7913 31.3215 13.7913C21.6397 13.7913 13.791 21.64 13.791 31.3218C13.791 41.0035 21.6397 48.8522 31.3215 48.8522Z" fill="#DA7B14" stroke="#E6C979" stroke-width="3.2"/>
<path d="M22.8404 38.4V26.04L24.8604 27.96H20.4404V24.4H27.5604V38.4H22.8404ZM35.6197 38.72C34.3797 38.72 33.2797 38.4334 32.3197 37.86C31.3731 37.2867 30.6264 36.4534 30.0797 35.36C29.5464 34.2667 29.2797 32.9467 29.2797 31.4C29.2797 29.8534 29.5464 28.5334 30.0797 27.44C30.6264 26.3467 31.3731 25.5134 32.3197 24.94C33.2797 24.3667 34.3797 24.08 35.6197 24.08C36.8597 24.08 37.9531 24.3667 38.8997 24.94C39.8597 25.5134 40.6064 26.3467 41.1397 27.44C41.6864 28.5334 41.9597 29.8534 41.9597 31.4C41.9597 32.9467 41.6864 34.2667 41.1397 35.36C40.6064 36.4534 39.8597 37.2867 38.8997 37.86C37.9531 38.4334 36.8597 38.72 35.6197 38.72ZM35.6197 34.94C35.9264 34.94 36.1997 34.8334 36.4397 34.62C36.6797 34.4067 36.8664 34.04 36.9997 33.52C37.1464 33 37.2197 32.2934 37.2197 31.4C37.2197 30.4934 37.1464 29.7867 36.9997 29.28C36.8664 28.76 36.6797 28.3934 36.4397 28.18C36.1997 27.9667 35.9264 27.86 35.6197 27.86C35.3131 27.86 35.0397 27.9667 34.7997 28.18C34.5597 28.3934 34.3664 28.76 34.2197 29.28C34.0864 29.7867 34.0197 30.4934 34.0197 31.4C34.0197 32.2934 34.0864 33 34.2197 33.52C34.3664 34.04 34.5597 34.4067 34.7997 34.62C35.0397 34.8334 35.3131 34.94 35.6197 34.94Z" fill="white"/>
</svg>
