<svg width="302" height="302" viewBox="0 0 302 302" fill="none" xmlns="http://www.w3.org/2000/svg">
<path d="M151 2.5C157.807 2.5 164.468 4.47053 170.179 8.17383C175.89 11.8771 180.406 17.1548 183.183 23.3691L184.44 26.1826L186.934 24.373C192.445 20.3726 198.998 18.0536 205.8 17.6982C212.601 17.3429 219.36 18.9658 225.259 22.3701C231.157 25.7744 235.944 30.8143 239.039 36.8809C242.134 42.9476 243.405 49.7817 242.699 56.5557L242.379 59.6211L245.444 59.3008C252.218 58.5945 259.052 59.8659 265.119 62.9609C271.186 66.0559 276.226 70.8426 279.63 76.7412C283.034 82.64 284.657 89.3988 284.302 96.2002C283.946 103.002 281.628 109.555 277.628 115.066L275.817 117.56L278.631 118.817C284.845 121.594 290.123 126.11 293.826 131.821C297.529 137.532 299.5 144.193 299.5 151C299.5 157.807 297.529 164.468 293.826 170.179C290.123 175.89 284.845 180.406 278.631 183.183L275.817 184.44L277.628 186.934C281.628 192.445 283.946 198.998 284.302 205.8C284.657 212.601 283.034 219.36 279.63 225.259C276.226 231.157 271.186 235.944 265.119 239.039C259.052 242.134 252.218 243.405 245.444 242.699L242.379 242.379L242.699 245.444C243.405 252.218 242.134 259.052 239.039 265.119C235.944 271.186 231.157 276.226 225.259 279.63C219.36 283.034 212.601 284.657 205.8 284.302C198.998 283.946 192.445 281.628 186.934 277.628L184.44 275.817L183.183 278.631C180.406 284.845 175.89 290.123 170.179 293.826C164.468 297.529 157.807 299.5 151 299.5C144.193 299.5 137.532 297.529 131.821 293.826C126.11 290.123 121.594 284.845 118.817 278.631L117.56 275.817L115.066 277.628C109.555 281.628 103.002 283.946 96.2002 284.302C89.3988 284.657 82.64 283.034 76.7412 279.63C70.8426 276.226 66.056 271.186 62.9609 265.119C59.8659 259.052 58.5945 252.218 59.3008 245.444L59.6211 242.379L56.5557 242.699C49.7817 243.405 42.9476 242.134 36.8809 239.039C30.8143 235.944 25.7744 231.157 22.3701 225.259C18.9658 219.36 17.3429 212.601 17.6982 205.8C18.0536 198.998 20.3726 192.445 24.373 186.934L26.1826 184.44L23.3691 183.183C17.1548 180.406 11.8771 175.89 8.17383 170.179C4.47053 164.468 2.5 157.807 2.5 151C2.5 144.193 4.47053 137.532 8.17383 131.821C11.8771 126.11 17.1548 121.594 23.3691 118.817L26.1826 117.56L24.373 115.066C20.3725 109.555 18.0536 103.002 17.6982 96.2002C17.3429 89.3988 18.9658 82.64 22.3701 76.7412C25.7744 70.8426 30.8143 66.0559 36.8809 62.9609C42.9476 59.8659 49.7817 58.5945 56.5557 59.3008L59.6211 59.6211L59.3008 56.5557C58.5945 49.7817 59.8659 42.9476 62.9609 36.8809C66.056 30.8143 70.8426 25.7744 76.7412 22.3701C82.64 18.9658 89.3988 17.3429 96.2002 17.6982C103.002 18.0536 109.555 20.3725 115.066 24.373L117.56 26.1826L118.817 23.3691C121.594 17.1548 126.11 11.8771 131.821 8.17383C137.532 4.47053 144.193 2.5 151 2.5Z" fill="url(#paint0_linear_7731_3139)" stroke="url(#paint1_linear_7731_3139)" stroke-width="5"/>
<defs>
<linearGradient id="paint0_linear_7731_3139" x1="151" y1="0" x2="151" y2="302" gradientUnits="userSpaceOnUse">
<stop stop-color="#671818"/>
<stop offset="0.161344" stop-color="#7F1B1B"/>
<stop offset="0.331731" stop-color="#671818"/>
<stop offset="0.540177" stop-color="#972121"/>
<stop offset="0.775477" stop-color="#5B1111"/>
<stop offset="0.926069" stop-color="#811B1B"/>
</linearGradient>
<linearGradient id="paint1_linear_7731_3139" x1="0" y1="0" x2="302" y2="302" gradientUnits="userSpaceOnUse">
<stop stop-color="#7A5C2E" stop-opacity="0.91"/>
<stop offset="0.35" stop-color="#C59D4D"/>
<stop offset="0.55" stop-color="#FFF3B0"/>
<stop offset="0.8" stop-color="#C59D4D"/>
<stop offset="1" stop-color="#7A5C2E"/>
</linearGradient>
</defs>
</svg>
